<svg id="visual" viewBox="0 0 960 540" width="960" height="540" xmlns="http://www.w3.org/2000/svg" xmlns:xlink="http://www.w3.org/1999/xlink" version="1.1"><rect x="0" y="0" width="960" height="540" fill="#181a1b"></rect><defs><linearGradient id="grad1_0" x1="43.8%" y1="0%" x2="100%" y2="100%"><stop offset="14.444444444444446%" stop-color="#181a1b" stop-opacity="1"></stop><stop offset="85.55555555555554%" stop-color="#181a1b" stop-opacity="1"></stop></linearGradient></defs><defs><linearGradient id="grad2_0" x1="0%" y1="0%" x2="56.3%" y2="100%"><stop offset="14.444444444444446%" stop-color="#181a1b" stop-opacity="1"></stop><stop offset="85.55555555555554%" stop-color="#181a1b" stop-opacity="1"></stop></linearGradient></defs><g transform="translate(960, 0)"><path d="M0 351C-45.2 345.6 -90.5 340.3 -134.3 324.3C-178.2 308.3 -220.6 281.6 -245.4 245.4C-270.1 209.2 -277.3 163.4 -291.9 120.9C-306.6 78.4 -328.8 39.2 -351 0L0 0Z" fill="#FBAE3C"></path></g><g transform="translate(0, 540)"><path d="M0 -351C39.3 -330.2 78.6 -309.5 122.5 -295.6C166.3 -281.8 214.7 -274.9 248.2 -248.2C281.7 -221.5 300.4 -175.1 315 -130.5C329.7 -85.8 340.4 -42.9 351 0L0 0Z" fill="#FBAE3C"></path></g></svg>